<?xml version="1.0" encoding="us-ascii" standalone="no"?><svg xmlns="http://www.w3.org/2000/svg" xmlns:xlink="http://www.w3.org/1999/xlink" contentStyleType="text/css" height="361px" preserveAspectRatio="none" style="width:501px;height:361px;background:#FFFFFF;" version="1.1" viewBox="0 0 501 361" width="501px" zoomAndPan="magnify"><defs/><g><rect fill="none" height="77.3984" style="stroke:#000000;stroke-width:1.5;" width="484" x="10" y="82.4297"/><rect fill="none" height="135.6641" style="stroke:#000000;stroke-width:1.5;" width="484" x="10" y="173.8281"/><line style="stroke:#181818;stroke-width:0.5;stroke-dasharray:5.0,5.0;" x1="66" x2="66" y1="36.2969" y2="326.4922"/><line style="stroke:#181818;stroke-width:0.5;stroke-dasharray:5.0,5.0;" x1="252" x2="252" y1="36.2969" y2="326.4922"/><line style="stroke:#181818;stroke-width:0.5;stroke-dasharray:5.0,5.0;" x1="455" x2="455" y1="36.2969" y2="326.4922"/><rect fill="#E2E2F0" height="30.2969" rx="2.5" ry="2.5" style="stroke:#181818;stroke-width:0.5;" width="92" x="20" y="5"/><text fill="#000000" font-family="sans-serif" font-size="14" lengthAdjust="spacing" textLength="78" x="27" y="24.9951">Atendente</text><rect fill="#E2E2F0" height="30.2969" rx="2.5" ry="2.5" style="stroke:#181818;stroke-width:0.5;" width="92" x="20" y="325.4922"/><text fill="#000000" font-family="sans-serif" font-size="14" lengthAdjust="spacing" textLength="78" x="27" y="345.4873">Atendente</text><rect fill="#E2E2F0" height="30.2969" rx="2.5" ry="2.5" style="stroke:#181818;stroke-width:0.5;" width="72" x="216" y="5"/><text fill="#000000" font-family="sans-serif" font-size="14" lengthAdjust="spacing" textLength="58" x="223" y="24.9951">Sistema</text><rect fill="#E2E2F0" height="30.2969" rx="2.5" ry="2.5" style="stroke:#181818;stroke-width:0.5;" width="72" x="216" y="325.4922"/><text fill="#000000" font-family="sans-serif" font-size="14" lengthAdjust="spacing" textLength="58" x="223" y="345.4873">Sistema</text><rect fill="#E2E2F0" height="30.2969" rx="2.5" ry="2.5" style="stroke:#181818;stroke-width:0.5;" width="58" x="426" y="5"/><text fill="#000000" font-family="sans-serif" font-size="14" lengthAdjust="spacing" textLength="44" x="433" y="24.9951">Banco</text><rect fill="#E2E2F0" height="30.2969" rx="2.5" ry="2.5" style="stroke:#181818;stroke-width:0.5;" width="58" x="426" y="325.4922"/><text fill="#000000" font-family="sans-serif" font-size="14" lengthAdjust="spacing" textLength="44" x="433" y="345.4873">Banco</text><polygon fill="#181818" points="240,63.4297,250,67.4297,240,71.4297,244,67.4297" style="stroke:#181818;stroke-width:1.0;"/><line style="stroke:#181818;stroke-width:1.0;" x1="66" x2="246" y1="67.4297" y2="67.4297"/><text fill="#000000" font-family="sans-serif" font-size="13" lengthAdjust="spacing" textLength="99" x="73" y="62.3638">1: Insere dados</text><path d="M10,82.4297 L76,82.4297 L76,89.5625 L66,99.5625 L10,99.5625 L10,82.4297 " fill="#EEEEEE" style="stroke:#000000;stroke-width:1.5;"/><rect fill="none" height="77.3984" style="stroke:#000000;stroke-width:1.5;" width="484" x="10" y="82.4297"/><text fill="#000000" font-family="sans-serif" font-size="13" font-weight="bold" lengthAdjust="spacing" textLength="21" x="25" y="95.4966">alt</text><text fill="#000000" font-family="sans-serif" font-size="11" font-weight="bold" lengthAdjust="spacing" textLength="95" x="91" y="94.6401">[Valida dados]</text><polygon fill="#181818" points="77,116.6953,67,120.6953,77,124.6953,73,120.6953" style="stroke:#181818;stroke-width:1.0;"/><line style="stroke:#181818;stroke-width:1.0;stroke-dasharray:2.0,2.0;" x1="71" x2="251" y1="120.6953" y2="120.6953"/><text fill="#000000" font-family="sans-serif" font-size="13" lengthAdjust="spacing" textLength="126" x="83" y="115.6294">2: Dados Incorretos</text><line style="stroke:#000000;stroke-width:1.0;stroke-dasharray:2.0,2.0;" x1="10" x2="494" y1="129.6953" y2="129.6953"/><polygon fill="#181818" points="443,147.8281,453,151.8281,443,155.8281,447,151.8281" style="stroke:#181818;stroke-width:1.0;"/><line style="stroke:#181818;stroke-width:1.0;" x1="252" x2="449" y1="151.8281" y2="151.8281"/><text fill="#000000" font-family="sans-serif" font-size="13" lengthAdjust="spacing" textLength="179" x="259" y="146.7622">3: Consulta usu&#225;rio e senha</text><path d="M10,173.8281 L76,173.8281 L76,180.9609 L66,190.9609 L10,190.9609 L10,173.8281 " fill="#EEEEEE" style="stroke:#000000;stroke-width:1.5;"/><rect fill="none" height="135.6641" style="stroke:#000000;stroke-width:1.5;" width="484" x="10" y="173.8281"/><text fill="#000000" font-family="sans-serif" font-size="13" font-weight="bold" lengthAdjust="spacing" textLength="21" x="25" y="186.895">alt</text><text fill="#000000" font-family="sans-serif" font-size="11" font-weight="bold" lengthAdjust="spacing" textLength="115" x="91" y="186.0386">[verifica usu&#225;rio]</text><polygon fill="#181818" points="263,208.0938,253,212.0938,263,216.0938,259,212.0938" style="stroke:#181818;stroke-width:1.0;"/><line style="stroke:#181818;stroke-width:1.0;stroke-dasharray:2.0,2.0;" x1="257" x2="454" y1="212.0938" y2="212.0938"/><text fill="#000000" font-family="sans-serif" font-size="13" lengthAdjust="spacing" textLength="98" x="269" y="207.0278">4: Retorna erro</text><polygon fill="#181818" points="77,237.2266,67,241.2266,77,245.2266,73,241.2266" style="stroke:#181818;stroke-width:1.0;"/><line style="stroke:#181818;stroke-width:1.0;stroke-dasharray:2.0,2.0;" x1="71" x2="251" y1="241.2266" y2="241.2266"/><text fill="#000000" font-family="sans-serif" font-size="13" lengthAdjust="spacing" textLength="153" x="83" y="236.1606">5: Exibe erro ao usu&#225;rio</text><line style="stroke:#000000;stroke-width:1.0;stroke-dasharray:2.0,2.0;" x1="10" x2="494" y1="250.2266" y2="250.2266"/><polygon fill="#181818" points="263,268.3594,253,272.3594,263,276.3594,259,272.3594" style="stroke:#181818;stroke-width:1.0;"/><line style="stroke:#181818;stroke-width:1.0;stroke-dasharray:2.0,2.0;" x1="257" x2="454" y1="272.3594" y2="272.3594"/><text fill="#000000" font-family="sans-serif" font-size="13" lengthAdjust="spacing" textLength="174" x="269" y="267.2935">6:retorna dados do usu&#225;rio</text><polygon fill="#181818" points="77,297.4922,67,301.4922,77,305.4922,73,301.4922" style="stroke:#181818;stroke-width:1.0;"/><line style="stroke:#181818;stroke-width:1.0;stroke-dasharray:2.0,2.0;" x1="71" x2="251" y1="301.4922" y2="301.4922"/><text fill="#000000" font-family="sans-serif" font-size="13" lengthAdjust="spacing" textLength="162" x="83" y="296.4263">7: redireciona para home</text><!--SRC=[VP1DRa8n38Jtd68kmAAbFv8NI51OT5kaxjsNGKHwnCZ9gtgTdeMBDKIl8AGMB-EPRyPP5AR0L8Zf79kO2_Sgk1EyfamdWWRB4-qBthMFGSS7r1dLc5RduXSZk1UiJffAwCoTfShPPrvxvbXgtGjcWXTBUUYBOiZ3yTkZWSXCEvrKQCl-fCTjx2wA1ck45dyk_Y1ugucU57ItMpqV1Ukl-C4cXDg5VMxxHy2J-CXl7u5Wrvt-2NiME4DqTj6gzw2ksDcUfmj_0000]--></g></svg>